<svg viewBox="0 0 460 380" role="img"
      aria-label="Schematic tree: total height 22.5 m, crown diameter 22.5 m">
    <style>
      .ground{stroke:#9aa0a6;stroke-width:1.4}
      .trunk{fill:#8a5a2b}
      .crown{fill:#4f8a5b;fill-opacity:0.55;stroke:#3c6b46;stroke-width:1.4}
      .dim-line{stroke:#5b6169;stroke-width:1}
      .dim-tick{stroke:#5b6169;stroke-width:1}
      .dim-label{fill:#3a3f45;font-size:11px;font-family:inherit}
      .cd-line{stroke:#5b6169;stroke-width:1}
      .cd-label{fill:#3a3f45;font-size:11px;font-family:inherit}
      .note{fill:#8a8f98;font-size:10px;font-family:inherit}
    </style>
    <line x1="40" y1="346" x2="440" y2="346" class="ground"/>
    <rect x="237" y="281.6" width="26"
          height="64.39999999999998" class="trunk" rx="2"/>
    <ellipse cx="250" cy="152.8" rx="75" ry="128.8" class="crown"/>
    
      <line x1="92" y1="24" x2="92" y2="346" class="dim-line"/>
      <line x1="87" y1="24" x2="97" y2="24" class="dim-tick"/>
      <line x1="87" y1="346" x2="97" y2="346" class="dim-tick"/>
      <text x="83" y="189" text-anchor="end" class="dim-label">Z=22.5 m</text>
    
      <line x1="92" y1="281.6" x2="92" y2="346" class="dim-line"/>
      <line x1="87" y1="281.6" x2="97" y2="281.6" class="dim-tick"/>
      <line x1="87" y1="346" x2="97" y2="346" class="dim-tick"/>
      <text x="83" y="317.8" text-anchor="end" class="dim-label">base 4.5</text>
    
      <line x1="390" y1="24" x2="390" y2="281.6" class="dim-line"/>
      <line x1="385" y1="24" x2="395" y2="24" class="dim-tick"/>
      <line x1="385" y1="281.6" x2="395" y2="281.6" class="dim-tick"/>
      <text x="399" y="156.8" text-anchor="start" class="dim-label">copa 18.0</text>
    <line x1="175" y1="152.8" x2="325" y2="152.8" class="cd-line"/>
    <text x="250" y="146.8" text-anchor="middle" class="cd-label">X=Y=22.5 m</text>
    <text x="250" y="362" text-anchor="middle" class="cd-label">trunk 1.05 m</text>
    <text x="440" y="374" text-anchor="end" class="note">schematic — not to scale</text>
  </svg>